<svg xmlns="http://www.w3.org/2000/svg" width="20" height="20" viewBox="0 0 20 20" fill="none">
  <g clip-path="url(#clip0_5123_5276)">
    <path d="M10 20C15.5228 20 20 15.5228 20 10C20 4.47715 15.5228 0 10 0C4.47715 0 0 4.47715 0 10C0 15.5228 4.47715 20 10 20Z" fill="#F0F0F0"/>
    <path d="M0 10C0 14.2997 2.71375 17.9653 6.52176 19.3783V0.622253C2.71375 2.03514 0 5.70039 0 10Z" fill="#6DA544"/>
    <path d="M20 10C20 5.70039 17.2863 2.03514 13.4783 0.622253V19.3783C17.2863 17.9653 20 14.2997 20 10Z" fill="#6DA544"/>
  </g>
  <defs>
    <clipPath id="clip0_5123_5276">
      <rect width="20" height="20" fill="white"/>
    </clipPath>
  </defs>
</svg>