<svg xmlns="http://www.w3.org/2000/svg" width="209" height="40" fill="none"><path fill="#fff" d="M96.855 4.002c-.323 2.292 1.166 4.001 3.485 4.001s4.29-1.709 4.613-4.001S103.787 0 101.467 0a4.66 4.66 0 0 0-4.612 4.002m.058 5.877-1.99 14.128 6.361-.243 1.955-13.885z"/><path fill="#fff" fill-rule="evenodd" d="M80.207 31.012c5.017 0 9.282-2.666 11.414-6.705l3.242.132-.85 6.031h6.327l.813-5.774 3.354.137-2.033 14.433h6.327l1.555-11.046c1.049 1.834 3.023 2.793 5.512 2.793 3.364 0 7.314-1.734 9.675-5.322l2.423.099c.413 3.117 3.323 5.223 7.94 5.223 5.356 0 9.298-2.835 9.897-7.087.687-4.877-3.799-5.668-6.735-6.085l-.256-.04c-1.775-.27-3.13-.476-2.962-1.67.118-.833.862-1.625 2.422-1.625 1.266 0 2.033.542 2.067 1.5h6.157c.396-3.71-2.392-6.669-7.58-6.669s-8.931 2.918-9.518 7.086c-.698 4.96 3.926 5.67 6.735 6.086l.155.024.216.032h.002c1.718.258 3.014.452 2.833 1.737-.123.875-.85 1.542-2.79 1.542-1.729 0-2.454-.542-2.344-1.626H89.431l2.282-.088c.614-1.21 1.04-2.54 1.239-3.955.88-6.253-3.114-10.838-9.693-10.838q-.153 0-.305.004l.02-.014H63.029a57 57 0 0 0-.81 0h.81c5.122.035 14.883.683 13.627 1.74a12.44 12.44 0 0 0-6.142 9.108c-.88 6.252 3.113 10.837 9.693 10.837m.821-5.835c2.868 0 5.096-2.043 5.513-5.002.416-2.96-1.236-5.002-4.104-5.002s-5.096 2.042-5.513 5.002 1.236 5.002 4.104 5.002" clip-rule="evenodd"/><path fill="#fff" d="M121.105 20.175c-.155 1.106-.564 2.084-1.165 2.875l6.998-.267c.241-.735.425-1.521.543-2.358.933-6.628-3.078-11.088-9.7-11.088-6.368 0-11.673 4.127-12.648 11.046l-.457 3.251 7.331-.28c-.5-.839-.694-1.927-.518-3.18.417-2.959 2.645-5.001 5.513-5.001s4.52 2.042 4.103 5.002m49.351 7.131 1.186-8.423c.934-6.628 5.225-9.546 10.286-9.546 2.952 0 5.282 1.126 6.537 3.293 1.866-2.167 4.471-3.293 7.465-3.293 5.062 0 8.531 2.918 7.598 9.546l-1.632 11.588h-6.327l1.632-11.588c.388-2.751-.827-3.71-2.725-3.71-1.856 0-3.34.959-3.728 3.71l-1.632 11.588h-6.326l1.632-11.588c.387-2.751-.827-3.71-2.683-3.71-1.898 0-3.383.959-3.77 3.71l-1.632 11.588h-3.791l.001.002h-8.864c3.678-.372 6.504-1.377 6.767-3.176z"/><path fill="#fff" d="M156.959 31.012c-6.158 0-9.798-3.501-8.818-10.462l1.108-7.864c.177-2.032-1.426-2.286-4.962-2.795h5.355l.002-.012h6.327l-1.503 10.67c-.458 3.252.951 4.628 3.313 4.628s4.158-1.376 4.616-4.627L163.9 9.879h6.326l-1.503 10.67c-.974 6.92-5.606 10.463-11.764 10.463M49.217 28.034a8.2 8.2 0 0 1-1.153-1.615l-4.517-.245c-2.336 2.973-6.006 4.838-10.203 4.838-6.579 0-10.573-4.585-9.692-10.837.88-6.253 6.165-10.838 12.745-10.838s10.573 4.585 9.693 10.838a12.6 12.6 0 0 1-1.258 3.991l-8.137.415c1.585-.812 2.701-2.398 2.984-4.406.416-2.96-1.236-5.002-4.104-5.002s-5.096 2.042-5.512 5.002c-.312 2.215.535 3.917 2.184 4.632l-7.14.364h32.646v.004c2.793-.073 4.947-2.094 5.357-5 .416-2.96-1.236-5.002-4.104-5.002s-5.096 2.042-5.513 5.002c-.2 1.425.08 2.638.743 3.512l-7.047.36c-.257-1.189-.3-2.49-.106-3.872.88-6.253 6.165-10.838 12.745-10.838s10.573 4.585 9.692 10.838c-.85 6.04-5.81 10.523-12.077 10.822 1.476.829 3.62 1.5 5.195 1.992.526.165.988.31 1.342.433 1.43.353 2.345 1.671 2.124 3.243-.26 1.842-1.98 3.335-3.845 3.335H52.135c-3.31 0-5.73-2.354-5.87-5.46l-12.487-1.21h23.343c-2.468-.944-5.077-2.832-6.754-4.256a8.3 8.3 0 0 1-1.148-1.039zM0 3.21l5.168.82-3.723 26.44h19.864l.881-6.252H9.158L12.116 3.21zm209 4.667a2.41 2.41 0 0 1-2.411 2.406 2.41 2.41 0 0 1-2.41-2.406 2.41 2.41 0 0 1 2.41-2.406A2.41 2.41 0 0 1 209 7.877"/></svg>