<svg width="16" height="16" viewBox="0 0 16 16" fill="none" xmlns="http://www.w3.org/2000/svg">
<g clip-path="url(#clip0_306_1872)">
<path d="M0 8.00071C0 9.38664 0.352594 10.6902 0.972719 11.8268L8 12.5224L15.0273 11.8268C15.6474 10.6902 16 9.38664 16 8.00071L8 7.30505L0 8.00071Z" fill="#FFDA44"/>
<path d="M15.0273 4.17391C13.6704 1.68716 11.0323 0 8 0C4.96766 0 2.32956 1.68716 0.972719 4.17391C0.352594 5.3105 0 6.61406 0 8H16C16 6.61406 15.6474 5.3105 15.0273 4.17391Z" fill="#338AF3"/>
<path d="M7.99994 15.9995C11.0323 15.9995 13.6704 14.3123 15.0272 11.8256H0.972656C2.3295 14.3123 4.96759 15.9995 7.99994 15.9995Z" fill="#496E2D"/>
<path d="M9.04346 4.68179L10.0205 5.14138L9.50024 6.08763L10.5612 5.8847L10.6956 6.95641L11.4346 6.16816L12.1736 6.95641L12.308 5.8847L13.3689 6.08757L12.8486 5.14135L13.8256 4.68179L12.8486 4.22226L13.3689 3.27601L12.308 3.47895L12.1735 2.40723L11.4346 3.19548L10.6956 2.40723L10.5612 3.47895L9.50021 3.27601L10.0205 4.22229L9.04346 4.68179Z" fill="#FFDA44"/>
</g>
<defs>
<clipPath id="clip0_306_1872">
<rect width="16" height="16" fill="white"/>
</clipPath>
</defs>
</svg>
