<svg width="16" height="16" viewBox="0 0 16 16" fill="none" xmlns="http://www.w3.org/2000/svg">
<g clip-path="url(#clip0_306_669)">
<path d="M13.6569 13.6561C10.5327 16.7803 5.46736 16.7803 2.34314 13.6561C-0.781047 10.5319 -0.781047 5.46656 2.34314 2.34234C2.34427 2.34234 9.53245 0.218373 12.6567 3.34256C15.7809 6.46675 13.659 13.6539 13.6569 13.6561Z" fill="#FFDA44"/>
<path d="M13.657 13.656C16.7812 10.5318 16.7812 5.4665 13.657 2.34228C10.5328 -0.781936 5.46748 -0.781905 2.34326 2.34228L13.657 13.656Z" fill="#D80027"/>
<path d="M10.0913 10.0928C9.76268 10.2218 9.38083 10.2081 9.04955 10.0222C8.46424 9.69374 8.25531 8.95017 8.5839 8.36477L8.48415 8.30883C9.48637 8.06718 10.2278 7.15749 10.2148 6.08399C10.2068 5.41659 9.90855 4.8195 9.44208 4.41093L8.71168 5.15925C8.9878 5.37931 9.16684 5.71687 9.17143 6.09665C9.17955 6.7679 8.64012 7.32062 7.9689 7.32871L7.97031 7.44299C7.2599 6.69593 6.10141 6.50865 5.17825 7.05665C4.60432 7.3974 4.23638 7.95415 4.11572 8.56243L5.12897 8.82086C5.1815 8.47168 5.38428 8.14786 5.71088 7.95396C6.28809 7.6113 7.03647 7.80218 7.37912 8.37936L7.4775 8.32102C7.18568 9.30971 7.60271 10.4067 8.53893 10.9322C9.12099 11.2589 9.78712 11.2991 10.3742 11.0995L10.0913 10.0928ZM7.97731 8.02421L7.97724 8.02424L7.97731 8.02421Z" fill="#FF9811"/>
<path d="M10.9621 5.41759L10.3967 7.43544L8.70013 7.12216L7.60807 4.87106L4.65785 5.91797L4.4252 5.26234L3.65332 5.16725L4.23491 6.80628L6.2652 6.28703L6.84216 7.91294L5.43866 9.98422L7.82045 12.0157L7.36898 12.5449L7.67257 13.261L8.80126 11.9378L7.33645 10.4391L8.45604 9.12653L10.9516 9.30634L11.52 6.22791L12.2041 6.35425L12.6725 5.73331L10.9621 5.41759ZM7.99948 8.05388V8.05394V8.05388Z" fill="#FFEACF"/>
</g>
<defs>
<clipPath id="clip0_306_669">
<rect width="16" height="16" fill="white"/>
</clipPath>
</defs>
</svg>
