<svg width="16" height="16" viewBox="0 0 16 16" fill="none" xmlns="http://www.w3.org/2000/svg">
<g clip-path="url(#clip0_306_2448)">
<path d="M8 16C12.4183 16 16 12.4183 16 8C16 3.58172 12.4183 0 8 0C3.58172 0 0 3.58172 0 8C0 12.4183 3.58172 16 8 16Z" fill="#F0F0F0"/>
<path d="M8 0C4.69266 0 1.85415 2.00706 0.635742 4.86956H15.364C14.1456 2.00706 11.3073 0 8 0Z" fill="#A2001D"/>
<path d="M8 16C11.3073 16 14.1456 13.9931 15.364 11.1306H0.635742C1.85415 13.9931 4.69266 16 8 16Z" fill="#496E2D"/>
<path d="M15.7244 5.91321H0.275594C0.09625 6.57862 0 7.2779 0 8C0 8.7221 0.09625 9.42175 0.275594 10.0872H15.7244C15.9038 9.42175 16 8.7221 16 8C16 7.2779 15.9038 6.57862 15.7244 5.91321Z" fill="#0052B4"/>
</g>
<defs>
<clipPath id="clip0_306_2448">
<rect width="16" height="16" fill="white"/>
</clipPath>
</defs>
</svg>
